<svg width="7" height="11" viewBox="0 0 7 11" fill="none" xmlns="http://www.w3.org/2000/svg">
<path fill-rule="evenodd" clip-rule="evenodd" d="M3.57868 5.98416C2.65534 5.98416 1.90839 5.22447 1.90839 4.28727C1.90839 3.35055 2.65534 2.59022 3.57868 2.59022C4.50169 2.59022 5.2493 3.35055 5.2493 4.28727C5.2493 5.22447 4.50169 5.98416 3.57868 5.98416ZM3.48394 0.650787C1.54227 0.650787 0 2.31354 0 4.3645C0 7.16041 2.95078 10.0496 2.95078 10.0496C3.34777 10.4314 3.59437 10.4626 4.01646 10.0496C4.01646 10.0496 7 7.16041 7 4.3645C7 2.31354 5.42544 0.650787 3.48394 0.650787Z" fill="#F55A5A"/>
</svg>
